<?xml version="1.0" encoding="utf-8"?>
<!-- Generator: Adobe Illustrator 24.1.0, SVG Export Plug-In . SVG Version: 6.00 Build 0)  -->
<svg version="1.1" id="Layer_1" xmlns="http://www.w3.org/2000/svg" xmlns:xlink="http://www.w3.org/1999/xlink" x="0px" y="0px"
	 viewBox="0 0 281 35" style="enable-background:new 0 0 281 35;" xml:space="preserve">
<style type="text/css">
	.st0{fill:#FFFFFF;}
	.st1{fill:#00B2A9;}
</style>
<g>
	<path class="st0" d="M17.2,34.4c-3,0-5.8-0.8-8.3-2.3c-2.6-1.5-4.6-3.5-6.1-6.2c-1.5-2.6-2.2-5.4-2.2-8.5s0.7-5.9,2.2-8.5
		c1.5-2.6,3.5-4.7,6.1-6.2c2.6-1.5,5.3-2.2,8.4-2.2C19.5,0.5,21.8,1,24,2c2.2,1,4,2.3,5.6,4.1l-3.1,2.8c-1.2-1.3-2.6-2.3-4.2-3
		c-1.6-0.7-3.3-1.1-5-1.1c-2.2,0-4.3,0.6-6.2,1.7C9,7.6,7.5,9.1,6.4,11.1c-1.1,2-1.7,4.1-1.7,6.4c0,2.3,0.6,4.4,1.7,6.3
		c1.1,2,2.6,3.5,4.5,4.7c1.9,1.1,4,1.7,6.2,1.7c1.9,0,3.7-0.4,5.4-1.3c1.7-0.8,3.2-2,4.3-3.5l3.3,2.7c-1.6,2-3.5,3.6-5.8,4.7
		C22.2,33.9,19.7,34.4,17.2,34.4z"/>
	<path class="st0" d="M56,20.4c0.9,1.4,1.4,3,1.4,4.6c0,1.3-0.3,2.6-1,3.8c-0.7,1.2-1.6,2.3-2.8,3.1c-1.1,0.9-2.4,1.5-3.8,1.9
		c-1.4,0.4-2.9,0.7-4.5,0.7c-3.1,0-5.7-0.7-7.8-2.1c-2.1-1.4-3.4-3.1-4.1-5.2l4-2.2c0,0.9,0.4,1.8,1.1,2.6c0.7,0.8,1.7,1.5,2.9,1.9
		c1.2,0.5,2.5,0.8,3.9,0.8c1.4,0,2.7-0.2,3.9-0.7c1.2-0.5,2.2-1.1,2.9-2c0.7-0.8,1.1-1.7,1.1-2.6c0-0.8-0.3-1.5-0.8-2.3
		c-0.5-0.7-1.2-1.4-2.2-1.9c-0.9-0.5-2.7-0.9-5.2-1.2c-2.8-0.3-4.9-0.8-6.3-1.5c-1.7-0.8-3.1-1.9-4.1-3.4c-1-1.4-1.5-3-1.5-4.7
		c0-1.3,0.3-2.6,1-3.8C34.8,5,35.7,4,36.9,3.1c2.4-1.7,5.2-2.6,8.4-2.6c1.6,0,3,0.2,4.5,0.7c1.4,0.4,2.7,1.1,3.9,1.9
		c1.7,1.3,2.9,2.9,3.5,4.7l-4,2.2c0-0.9-0.4-1.8-1.1-2.6c-0.7-0.8-1.7-1.5-2.9-1.9c-1.3-0.5-2.6-0.7-3.9-0.7c-1.4,0-2.7,0.2-4,0.7
		c-1.2,0.5-2.2,1.1-2.9,1.9c-0.7,0.8-1.1,1.7-1.1,2.7c0,0.8,0.3,1.6,0.9,2.4c0.6,0.8,1.4,1.4,2.3,1.8c0.6,0.3,1.4,0.5,2.5,0.7
		c1.1,0.2,1.9,0.3,2.5,0.4c1.6,0.2,2.9,0.4,3.9,0.7c1,0.2,1.9,0.6,2.8,1C53.8,17.8,55.1,18.9,56,20.4z"/>
	<path class="st0" d="M76.5,34.4c-3,0-5.8-0.8-8.3-2.3c-2.6-1.5-4.6-3.5-6.1-6.2c-1.5-2.6-2.2-5.4-2.2-8.5s0.7-5.9,2.2-8.5
		c1.5-2.6,3.5-4.7,6.1-6.2c2.6-1.5,5.3-2.2,8.4-2.2c2.4,0,4.6,0.5,6.8,1.5c2.2,1,4,2.3,5.6,4.1l-3.1,2.8c-1.2-1.3-2.6-2.3-4.2-3
		c-1.6-0.7-3.3-1.1-5-1.1c-2.2,0-4.3,0.6-6.2,1.7c-1.9,1.2-3.5,2.7-4.6,4.7c-1.1,2-1.7,4.1-1.7,6.4c0,2.3,0.6,4.4,1.7,6.3
		c1.1,2,2.6,3.5,4.5,4.7c1.9,1.1,4,1.7,6.2,1.7c1.9,0,3.7-0.4,5.4-1.3c1.7-0.8,3.2-2,4.3-3.5l3.3,2.7c-1.6,2-3.5,3.6-5.8,4.7
		C81.5,33.9,79,34.4,76.5,34.4z"/>
	<path class="st0" d="M180.7,1.4h25.9v4.1h-10.9v28h-4.2v-28h-10.9V1.4z"/>
	<path class="st0" d="M210.8,1.4h4.1v32.1h-4.1V1.4z"/>
	<path class="st0" d="M235.7,33.9c-2.9,0-5.6-0.7-8.1-2.2c-2.5-1.4-4.5-3.4-5.9-6c-1.4-2.5-2.2-5.3-2.2-8.2c0-2.9,0.7-5.7,2.2-8.2
		c1.5-2.5,3.4-4.5,5.9-6c2.5-1.5,5.2-2.2,8.1-2.2c2.9,0,5.6,0.7,8.1,2.2c2.5,1.5,4.5,3.5,5.9,6c1.4,2.5,2.2,5.2,2.2,8.2
		c0,2.9-0.7,5.7-2.2,8.2c-1.5,2.5-3.4,4.5-5.9,6C241.3,33.1,238.6,33.9,235.7,33.9z M235.7,5.2c-2.2,0-4.2,0.5-6,1.6
		c-1.9,1.1-3.3,2.6-4.4,4.5c-1.1,1.9-1.6,3.9-1.6,6.1c0,2.2,0.5,4.3,1.6,6.2c1.1,1.9,2.6,3.4,4.4,4.5c1.9,1.1,3.9,1.7,6,1.7
		c2.2,0,4.3-0.6,6.1-1.7c1.9-1.1,3.3-2.6,4.4-4.4c1.1-1.9,1.6-3.9,1.6-6.2c0-2.2-0.5-4.2-1.6-6.1s-2.6-3.4-4.4-4.5
		C239.9,5.8,237.9,5.2,235.7,5.2z"/>
	<path class="st0" d="M259.8,33.4h-4.1V0.8l20.8,22.6V1.3h4.1v32.9l-20.7-22.7V33.4z"/>
	<path class="st0" d="M128,20.2c0.9,1.4,1.4,2.9,1.4,4.4c0,1.3-0.3,2.5-1,3.7c-0.6,1.2-1.5,2.2-2.7,3c-1.1,0.8-2.3,1.4-3.7,1.9
		c-1.4,0.4-2.8,0.6-4.3,0.6c-3,0-5.5-0.7-7.5-2c-2-1.4-3.3-3-4-5l3.8-2.2c0,0.9,0.4,1.7,1.1,2.5c0.7,0.8,1.6,1.4,2.8,1.9
		c1.2,0.5,2.4,0.7,3.8,0.7c1.3,0,2.6-0.2,3.8-0.7c1.2-0.5,2.1-1.1,2.8-1.9c0.7-0.8,1-1.6,1-2.5c0-0.8-0.2-1.5-0.7-2.2
		c-0.5-0.7-1.2-1.3-2.1-1.8c-0.9-0.5-2.6-0.9-5.1-1.2c-2.8-0.3-4.8-0.7-6.1-1.4c-1.7-0.8-3-1.9-4-3.3c-1-1.4-1.4-2.9-1.4-4.5
		c0-1.3,0.3-2.5,1-3.7c0.6-1.2,1.5-2.2,2.7-3c2.3-1.7,5-2.5,8.2-2.5c1.5,0,2.9,0.2,4.3,0.6c1.4,0.4,2.6,1.1,3.7,1.9
		c1.6,1.3,2.8,2.8,3.4,4.5l-3.8,2.2c0-0.9-0.3-1.7-1-2.5s-1.6-1.4-2.8-1.9c-1.2-0.5-2.5-0.7-3.8-0.7c-1.4,0-2.7,0.2-3.8,0.7
		c-1.2,0.5-2.1,1.1-2.8,1.8c-0.7,0.8-1,1.6-1,2.6c0,0.8,0.3,1.6,0.9,2.3c0.6,0.8,1.3,1.4,2.2,1.8c0.6,0.3,1.4,0.5,2.4,0.7
		c1,0.2,1.8,0.3,2.4,0.4c1.5,0.2,2.8,0.4,3.8,0.6c1,0.2,1.9,0.6,2.7,1C125.8,17.7,127.1,18.8,128,20.2z"/>
	<path class="st0" d="M131,1.4h25.9v4.1H146v28h-4.2v-28H131V1.4z"/>
	<polygon class="st0" points="181.1,28.4 176.7,28.4 179,33.6 183.4,33.6 	"/>
	<g>
		<polygon class="st0" points="157.8,26 154.3,33.6 158.8,33.6 162.3,26 		"/>
	</g>
	<polygon class="st0" points="169.1,11.1 173.8,21.9 178.3,21.9 178.3,21.9 169.2,1.1 160.7,19.6 165.2,19.6 	"/>
	<polygon class="st1" points="178.3,21.9 152,21.9 150.1,26 180.1,26 	"/>
</g>
</svg>
